<svg width="24" height="24" viewBox="0 0 24 24" fill="none" xmlns="http://www.w3.org/2000/svg">
<g id="Icon / 24 / Instruction">
<path id="Union" fill-rule="evenodd" clip-rule="evenodd" d="M4.09717 3.41737C3.34767 3.35439 2.75 3.90591 2.75 4.66V16.74C2.75 17.3276 3.25413 17.9034 3.83302 17.9758L3.84256 17.977L3.84255 17.977L4.12938 18.0166L4.13102 18.0169C6.18691 18.2919 9.2139 19.2496 11.25 20.2431V19.234L4.09717 3.41737ZM4.09717 3.41737L11.25 19.1898V5.89056C11.1921 5.86447 11.1353 5.83464 11.0802 5.80075L10.8342 5.6532L10.8231 5.64653L10.8231 5.64643C9.14352 4.59905 6.07864 3.57778 4.09946 3.41756L4.09717 3.41737ZM19.8311 18.0166C17.786 18.2886 14.7882 19.2385 12.75 20.2311V5.89056C12.8099 5.86357 12.8686 5.83258 12.9256 5.79723L12.9256 5.79734L12.9375 5.78968L13.101 5.68386C13.4331 5.47865 13.8217 5.27014 14.25 5.0662V8C14.25 8.00001 14.25 8.00002 14.25 8.00002C14.25 8.08021 14.2628 8.1585 14.2869 8.23245C14.3459 8.41344 14.4727 8.56837 14.6457 8.66108C14.8894 8.79166 15.1851 8.77762 15.4153 8.62454L17 7.57071L18.5847 8.62454C18.8149 8.77762 19.1106 8.79166 19.3543 8.66108C19.4761 8.59579 19.575 8.49963 19.6435 8.38525C19.712 8.27086 19.75 8.13825 19.75 8.00002C19.75 8.00002 19.75 8.00001 19.75 8V3.43465L19.8018 3.43002H19.83C19.851 3.43002 19.8719 3.42914 19.8928 3.42738C20.6495 3.36379 21.25 3.91316 21.25 4.67001V16.74C21.25 17.3273 20.7465 17.9027 20.1681 17.9756L20.167 17.9758L19.8397 18.0155L19.8397 18.0154L19.8311 18.0166ZM18.8727 2.04087C19.1707 1.9861 19.4535 1.95379 19.7077 1.93261C19.7285 1.93088 19.7492 1.93002 19.77 1.93002H19.8009C21.4092 1.81328 22.75 3.03821 22.75 4.67001V16.74C22.75 18.0724 21.6942 19.2966 20.353 19.4642L20.3503 19.4645L20.0246 19.5041C17.9391 19.7824 14.6756 20.8603 12.8373 21.8739C12.5663 22.028 12.2587 22.0825 11.9937 22.0825C11.7306 22.0825 11.4305 22.0289 11.1631 21.8851L11.1354 21.8713L11.1226 21.8647L11.1101 21.8581C9.27063 20.8521 6.00896 19.7812 3.93068 19.5034L3.92747 19.503L3.64185 19.4636C2.30316 19.2934 1.25 18.0707 1.25 16.74V4.66C1.25 3.03446 2.59165 1.78621 4.22163 1.92255C6.44023 2.10243 9.7302 3.19904 11.6112 4.37014L11.8558 4.51684L11.865 4.52237C11.8676 4.52359 11.8782 4.52843 11.8985 4.53349C11.9257 4.54028 11.9608 4.545 12 4.545C12.0392 4.545 12.0743 4.54028 12.1015 4.53349C12.1208 4.52869 12.1313 4.52408 12.1345 4.52258L12.2926 4.42033L12.3052 4.41231C12.9804 3.99439 13.8194 3.58684 14.7147 3.22635C14.7176 3.22518 14.7204 3.22403 14.7233 3.2229C16.0728 2.68722 17.5824 2.25136 18.8727 2.04087ZM18.25 3.69085C17.4446 3.87306 16.5784 4.13137 15.75 4.43617V6.60055L16.5847 6.04547C16.8363 5.87816 17.1637 5.87816 17.4153 6.04549L18.25 6.60057V3.69085Z" fill="black"/>
</g>
</svg>
